<?xml version="1.0" encoding="UTF-8"?><svg width="1440" height="720" xmlns="http://www.w3.org/2000/svg" xmlns:xlink="http://www.w3.org/1999/xlink"><defs><linearGradient x1="50%" y1="70.1426852%" x2="130.165794%" y2="28.3625875%" id="b"><stop stop-color="#58B486" offset="0%"/><stop stop-color="#CFF6B0" offset="100%"/></linearGradient><linearGradient x1="10.6296642%" y1="50%" x2="88.7817164%" y2="50%" id="e"><stop stop-color="#FFF" offset="0%"/><stop stop-color="#FFF" stop-opacity="0" offset="100%"/></linearGradient><linearGradient x1="134.836899%" y1="6.31766096%" x2="35.1700936%" y2="6.31766096%" id="g"><stop stop-color="#FFF" offset="0%"/><stop stop-color="#FFF" stop-opacity="0" offset="100%"/></linearGradient><linearGradient x1="134.836899%" y1="6.31766096%" x2="35.1700936%" y2="6.31766096%" id="h"><stop stop-color="#FFF" offset="0%"/><stop stop-color="#FFF" stop-opacity="0" offset="100%"/></linearGradient><linearGradient x1="60.2815192%" y1="74.2022958%" x2="60.2815192%" y2="-57.4001214%" id="i"><stop stop-color="#FFF5F1" offset="0%"/><stop stop-color="#F4B4A5" offset="100%"/></linearGradient><linearGradient x1="60.2815192%" y1="74.2022958%" x2="60.2815192%" y2="-57.4001214%" id="j"><stop stop-color="#FFF5F1" offset="0%"/><stop stop-color="#F4B4A5" offset="100%"/></linearGradient><linearGradient x1="10.3619104%" y1="50%" x2="95.1048261%" y2="50%" id="k"><stop stop-color="#FB98B4" offset="0%"/><stop stop-color="#F9769B" offset="100%"/></linearGradient><linearGradient x1="10.3619104%" y1="50%" x2="95.1048261%" y2="50%" id="l"><stop stop-color="#FB98B4" offset="0%"/><stop stop-color="#F9769B" offset="100%"/></linearGradient><linearGradient x1="10.3619104%" y1="50%" x2="95.1048261%" y2="50%" id="m"><stop stop-color="#FB98B4" offset="0%"/><stop stop-color="#F9769B" offset="100%"/></linearGradient><linearGradient x1="10.3619104%" y1="50%" x2="95.1048261%" y2="50%" id="n"><stop stop-color="#FB98B4" offset="0%"/><stop stop-color="#F9769B" offset="100%"/></linearGradient><linearGradient x1="60.9751301%" y1="-135.299942%" x2="60.9751301%" y2="120.911638%" id="o"><stop stop-color="#005ACA" offset="0%"/><stop stop-color="#130B4B" offset="100%"/></linearGradient><linearGradient x1="60.9751301%" y1="-135.299942%" x2="60.9751301%" y2="120.911638%" id="p"><stop stop-color="#005ACA" offset="0%"/><stop stop-color="#130B4B" offset="100%"/></linearGradient><linearGradient x1="60.9751301%" y1="-135.299942%" x2="60.9751301%" y2="120.911638%" id="q"><stop stop-color="#005ACA" offset="0%"/><stop stop-color="#130B4B" offset="100%"/></linearGradient><linearGradient x1="60.2815192%" y1="74.2022958%" x2="60.2815192%" y2="-57.4001214%" id="r"><stop stop-color="#FFF5F1" offset="0%"/><stop stop-color="#F4B4A5" offset="100%"/></linearGradient><linearGradient x1="28.6898445%" y1="56.934%" x2="89.640765%" y2="53.9220581%" id="s"><stop stop-color="#FF7D3D" offset="0%"/><stop stop-color="#FFA980" offset="100%"/><stop stop-color="#FFA980" offset="100%"/></linearGradient><linearGradient x1="-9.0110296%" y1="53.9220581%" x2="124.151619%" y2="53.9220581%" id="t"><stop stop-color="#FFA980" offset="0%"/><stop stop-color="#FF7D3D" offset="100%"/></linearGradient><linearGradient x1="14.3267702%" y1="56.934%" x2="116.358695%" y2="53.9220581%" id="u"><stop stop-color="#FF7D3D" offset="0%"/><stop stop-color="#FFA980" offset="100%"/><stop stop-color="#FFA980" offset="100%"/></linearGradient><linearGradient x1="34.6188132%" y1="56.934%" x2="78.6118048%" y2="53.9220581%" id="v"><stop stop-color="#FF7D3D" offset="0%"/><stop stop-color="#FFA980" offset="100%"/><stop stop-color="#FFA980" offset="100%"/></linearGradient><linearGradient x1="10.3619104%" y1="50%" x2="95.1048261%" y2="50%" id="w"><stop stop-color="#FB98B4" offset="0%"/><stop stop-color="#F9769B" offset="100%"/></linearGradient><linearGradient x1="79.4128118%" y1="91.4363892%" x2="79.4128118%" y2="-34.2069329%" id="x"><stop stop-color="#F5BBA2" offset="0%"/><stop stop-color="#FFE6DB" offset="100%"/></linearGradient><linearGradient x1="-4.669%" y1="56.934%" x2="57.74%" y2="56.934%" id="y"><stop stop-color="#FFA980" offset="0%"/><stop stop-color="#FF9059" offset="100%"/></linearGradient><linearGradient x1="10.1374361%" y1="50.5553498%" x2="124.151619%" y2="50.3141209%" id="z"><stop stop-color="#FF7D3D" offset="0%"/><stop stop-color="#FFA980" offset="100%"/><stop stop-color="#FFA980" offset="100%"/></linearGradient><linearGradient x1="60.9751301%" y1="-135.299942%" x2="60.9751301%" y2="120.911638%" id="A"><stop stop-color="#005ACA" offset="0%"/><stop stop-color="#130B4B" offset="100%"/></linearGradient><linearGradient x1="10.1374361%" y1="54.2435302%" x2="124.151619%" y2="52.4002556%" id="B"><stop stop-color="#FF7D3D" offset="0%"/><stop stop-color="#FFA980" offset="100%"/><stop stop-color="#FFA980" offset="100%"/></linearGradient><linearGradient x1="79.4128118%" y1="91.4363892%" x2="79.4128118%" y2="-34.2069329%" id="C"><stop stop-color="#F5BBA2" offset="0%"/><stop stop-color="#FFE6DB" offset="100%"/></linearGradient><linearGradient x1="79.4128118%" y1="91.4363892%" x2="79.4128118%" y2="-130.974137%" id="D"><stop stop-color="#F5BBA2" offset="0%"/><stop stop-color="#FFE6DB" offset="100%"/></linearGradient><linearGradient x1="79.4128118%" y1="91.4363892%" x2="79.4128118%" y2="-34.2069329%" id="E"><stop stop-color="#F5BBA2" offset="0%"/><stop stop-color="#FFE6DB" offset="100%"/></linearGradient><linearGradient x1="60.9751301%" y1="-135.299942%" x2="60.9751301%" y2="120.911638%" id="F"><stop stop-color="#005ACA" offset="0%"/><stop stop-color="#130B4B" offset="100%"/></linearGradient><linearGradient x1="40.5273259%" y1="47.4242365%" x2="36.8916143%" y2="102.063552%" id="G"><stop stop-color="#F1AB8E" offset="0%"/><stop stop-color="#FFE6DB" offset="100%"/></linearGradient><linearGradient x1="66.407384%" y1="10.5345395%" x2="33.3327085%" y2="6.77357456%" id="H"><stop stop-color="#F1E9DD" offset="0%"/><stop stop-color="#FFF" offset="100%"/></linearGradient><linearGradient x1="60.9751301%" y1="-135.299942%" x2="60.9751301%" y2="120.911638%" id="I"><stop stop-color="#005ACA" offset="0%"/><stop stop-color="#130B4B" offset="100%"/></linearGradient><linearGradient x1="60.9751301%" y1="20.4411364%" x2="57.7875185%" y2="163.823625%" id="J"><stop stop-color="#130B4B" offset="0%"/><stop stop-color="#005ACA" offset="100%"/></linearGradient><linearGradient x1="72.8411689%" y1="161.047635%" x2="77.3472366%" y2="23.3157358%" id="K"><stop stop-color="#FFE6DB" offset="0%"/><stop stop-color="#F5BBA2" offset="100%"/></linearGradient><linearGradient x1="60.9751301%" y1="-135.299942%" x2="60.9751301%" y2="120.911638%" id="L"><stop stop-color="#005ACA" offset="0%"/><stop stop-color="#130B4B" offset="100%"/></linearGradient><linearGradient x1="138.295233%" y1="33.2823215%" x2="26.4679057%" y2="36.4857461%" id="M"><stop stop-color="#FFE6DB" offset="0%"/><stop stop-color="#F5BBA2" offset="100%"/></linearGradient><linearGradient x1="54.6973684%" y1="10.5345395%" x2="45.2282211%" y2="6.77357456%" id="N"><stop stop-color="#F1E9DD" offset="0%"/><stop stop-color="#FFF" offset="100%"/></linearGradient><linearGradient x1="60.9751301%" y1="-135.299942%" x2="60.9751301%" y2="120.911638%" id="O"><stop stop-color="#005ACA" offset="0%"/><stop stop-color="#130B4B" offset="100%"/></linearGradient><linearGradient x1="60.9751301%" y1="-135.299942%" x2="60.9751301%" y2="120.911638%" id="P"><stop stop-color="#005ACA" offset="0%"/><stop stop-color="#130B4B" offset="100%"/></linearGradient><linearGradient x1="60.9751301%" y1="-135.299942%" x2="60.9751301%" y2="120.911638%" id="Q"><stop stop-color="#005ACA" offset="0%"/><stop stop-color="#130B4B" offset="100%"/></linearGradient><linearGradient x1="10.3619104%" y1="50%" x2="95.1048261%" y2="50%" id="R"><stop stop-color="#FB98B4" offset="0%"/><stop stop-color="#F9769B" offset="100%"/></linearGradient><linearGradient x1="68.297788%" y1="-42.3753777%" x2="68.297788%" y2="166.49989%" id="S"><stop stop-color="#005ACA" offset="0%"/><stop stop-color="#130B4B" offset="100%"/></linearGradient><linearGradient x1="50.2637822%" y1="-9.16204534%" x2="50.4967139%" y2="214.324899%" id="T"><stop stop-color="#130B4B" offset="0%"/><stop stop-color="#005ACA" offset="100%"/></linearGradient><linearGradient x1="10.3619104%" y1="50%" x2="95.1048261%" y2="50%" id="U"><stop stop-color="#FB98B4" offset="0%"/><stop stop-color="#F9769B" offset="100%"/></linearGradient><linearGradient x1="10.3619104%" y1="50%" x2="123.526027%" y2="50%" id="V"><stop stop-color="#F9769B" offset="0%"/><stop stop-color="#FB98B4" offset="100%"/></linearGradient><linearGradient x1="60.9751301%" y1="-135.299942%" x2="60.9751301%" y2="120.911638%" id="W"><stop stop-color="#005ACA" offset="0%"/><stop stop-color="#130B4B" offset="100%"/></linearGradient><linearGradient x1="60.9751301%" y1="-135.299942%" x2="60.9751301%" y2="120.911638%" id="X"><stop stop-color="#005ACA" offset="0%"/><stop stop-color="#130B4B" offset="100%"/></linearGradient><linearGradient x1="50%" y1="-406.081554%" x2="50%" y2="31.5448711%" id="Y"><stop stop-color="#005ACA" offset="0%"/><stop stop-color="#130B4B" offset="100%"/></linearGradient><linearGradient x1="60.9751301%" y1="-135.299942%" x2="60.9751301%" y2="120.911638%" id="Z"><stop stop-color="#005ACA" offset="0%"/><stop stop-color="#130B4B" offset="100%"/></linearGradient><linearGradient x1="60.9751301%" y1="-135.299942%" x2="60.9751301%" y2="120.911638%" id="aa"><stop stop-color="#005ACA" offset="0%"/><stop stop-color="#130B4B" offset="100%"/></linearGradient><linearGradient x1="10.3619104%" y1="50%" x2="95.1048261%" y2="50%" id="ab"><stop stop-color="#FB98B4" offset="0%"/><stop stop-color="#F9769B" offset="100%"/></linearGradient><linearGradient x1="42.553066%" y1="72.6130944%" x2="143.109565%" y2="12.3750381%" id="ac"><stop stop-color="#EFAF94" offset="0%"/><stop stop-color="#FFE6DB" offset="100%"/></linearGradient><linearGradient x1="60.215675%" y1="-4.3949003%" x2="57.2486392%" y2="259.460851%" id="ad"><stop stop-color="#130B4B" offset="0%"/><stop stop-color="#005ACA" offset="100%"/></linearGradient><linearGradient x1="60.9751301%" y1="-135.299942%" x2="60.9751301%" y2="120.911638%" id="ae"><stop stop-color="#005ACA" offset="0%"/><stop stop-color="#130B4B" offset="100%"/></linearGradient><linearGradient x1="58.3775865%" y1="-136.023146%" x2="50%" y2="201.905549%" id="af"><stop stop-color="#005ACA" offset="0%"/><stop stop-color="#130B4B" offset="100%"/></linearGradient><linearGradient x1="60.9751301%" y1="33.4844305%" x2="57.7875185%" y2="113.597235%" id="ag"><stop stop-color="#005ACA" offset="0%"/><stop stop-color="#130B4B" offset="100%"/></linearGradient><linearGradient x1="60.9751301%" y1="36.4012749%" x2="57.7875185%" y2="102.365213%" id="ah"><stop stop-color="#130B4B" offset="0%"/><stop stop-color="#005ACA" offset="100%"/></linearGradient><linearGradient x1="60.9751301%" y1="27.055788%" x2="57.7875185%" y2="138.352293%" id="ai"><stop stop-color="#130B4B" offset="0%"/><stop stop-color="#005ACA" offset="100%"/></linearGradient><circle id="d" cx="293.396797" cy="292.83218" r="292.725"/><path d="M26.086418 492.827346c108.397905 139.340104 768.86309 325.393409 956.909327-61.86248 188.046235-387.2558893-93.77231-498.6804663-458.706576-393.42682-364.934266 105.253646-606.6006556 315.949197-498.202751 455.2893z" id="a"/></defs><g fill="none" fill-rule="evenodd"><g transform="translate(151.011397 38)"><mask id="c" fill="#fff"><use xlink:href="#a"/></mask><use fill="url(#b)" fill-rule="nonzero" xlink:href="#a"/><g opacity=".60000002" mask="url(#c)"><g transform="rotate(30 791.97952778 1205.41001909)"><mask id="f" fill="#fff"><use xlink:href="#d"/></mask><path d="M655.376611 578.263733v3.6h-753.75v-3.6h753.75zm-2.401127-25.308875v3.6h-753.75v-3.6h753.75zm-2.401127-25.308874v3.6h-753.75v-3.6h753.75zm-2.401127-25.308874v3.6h-753.75v-3.6h753.75zm6.757091-30.596374v3.6H-98.8196787v-3.6H654.930321zm-2.401127-25.308874v3.6h-753.75v-3.6h753.75zm-2.401127-25.308874v3.6h-753.75v-3.6h753.75zm-2.401127-25.308874v3.6h-753.75v-3.6h753.75zm6.757092-30.596374v3.6H-99.2659684v-3.6H654.484032zm-2.401127-25.308874v3.6h-753.75v-3.6h753.75zm-2.401128-25.308874v3.6h-753.75v-3.6h753.75zm-2.401127-25.308875v3.6h-753.75v-3.6h753.75zm6.757092-30.596374v3.6h-753.75v-3.6h753.75zm-2.401127-25.308874v3.6h-753.75v-3.6h753.75zm-2.401127-25.308874v3.6h-753.75v-3.6h753.75zm6.757091-30.596374v3.6H-97.7574206v-3.6H655.992579zm-2.401127-25.308874v3.6h-753.75v-3.6h753.75zm6.757092-30.596374v3.6H-93.4014562v-3.6H660.348544zm-2.401127-25.3088743v3.6H-95.8025832v-3.6H657.947417zm-2.401127-25.3088741v3.6H-98.2037103v-3.6H655.54629zm-2.401127-25.3088741v3.6h-753.75v-3.6h753.75zm6.757091-30.5963741v3.6H-93.8477458v-3.6H659.902254zm-2.401127-25.3088741v3.6H-96.2488729v-3.6H657.501127zM655.1-35.5653718v3.6H-98.65v-3.6H655.1z" fill="url(#e)" mask="url(#f)"/></g></g></g><path d="M446.041331 393.906765c34.96-100.2 136.06-138.58 303.32-115.1 126.269463 17.719248 211.598692-54.87832 256.412309-212.4818464C1020.68276 13.8915118 654-54.3153528 437.513906 89.0410872c-95.759088 63.4113798-28.447987 183.4457358 8.537425 304.8656778h-.01z" fill="url(#g)" opacity=".55185082" style="mix-blend-mode:soft-light" transform="translate(105 32)"/><path d="M239.863251-58.2749377c135.798078-18.5832265 269.281232-11.947283 244.761147 64.21422307C460.104313 82.1007914 406.534522 193.470921 463.201655 261.445727c56.667132 67.974807-132.804197 176.779728-212.44921 142.130022-79.645013-34.649705-146.687272-443.2674601-10.889194-461.8506867z" fill="url(#h)" opacity=".55185082" style="mix-blend-mode:soft-light" transform="rotate(88 360.70929298 241.97645247)"/><path d="M17.7690163 57.9372597c.7713948 2.3496746 1.0437276 4.0327449.8169982 5.0492109-1.1902299 5.3360017-5.4239381 8.1823857-6.0980964 8.1823857-1.3001867 0 46.5980204-4.8814971 59.6246933-15.8315451 8.6844486-7.3000319 10.8379445-10.2321526 6.4604877-8.796362L17.7690163 57.9372597z" fill="url(#i)" transform="translate(1030 77)"/><path d="M78.1389845 49.4350853c-1.5052193 9.875245.0734118 19.545664 4.7358935 29.0112569 4.6624816 9.465593 14.0140106 21.9851698 28.054587 37.5587308l14.973987-17.5182762-47.7644675-49.0517115z" fill="url(#j)" transform="translate(1030 77)"/><path d="M1030 123.5409492c3.20182793 2.7031007 5.36718072 4.9904691 6.49605838 6.8621051 1.12887765 1.871636 1.44686883 5.3087808.95397352 10.3114345 32.6558126-3.6893468 51.2049981-5.9289466 55.6475567-6.7187993 4.4425585-.7898528 8.7604655-2.6158462 12.953721-5.4779802 11.6949467 14.1420846 20.4276204 24.3136836 26.1980214 30.5147968 5.7704 6.2011133 13.842415 14.6177231 24.216043 25.2498299l5.875916-10.2014233-53.321673-62.0255357L1030 123.5409492z" fill="#FFF"/><path d="M75.4359253 40.4786219L119.796533.6406966c5.718096-.85426213 10.293688-.85426213 13.726776 0 3.433088.85426212 5.533218 2.63085912 6.300388 5.32979099L88.5240182 52.102984c-1.8178273-3.3801272-3.4521156-5.7102801-4.9028649-6.9904585-1.4507493-1.2801784-4.1791587-2.8248129-8.185228-4.6339036z" fill="url(#k)" fill-rule="nonzero" transform="translate(1030 77)"/><path d="M120.02769.6406966L61.4950969 2.17362474c-3.1097999.95581965-9.5485593 4.95732377-19.316278 12.00451236C32.4111003 21.2253257 18.3514939 32.0129297 0 46.5409492c15.9688202-.6688665 28.3080905-1.3375707 37.0178111-2.0061127 8.7097206-.6685419 21.7208868-1.94569 39.0334985-3.8314442L120.02769.6406966z" fill="url(#l)" fill-rule="nonzero" transform="translate(1030 77)"/><path d="M88.3065256 51.5177093c-.0547811 1.4502452 3.9160012 6.6018254 11.9123474 15.4547406 7.996345 8.8529152 20.006843 21.3945313 36.031493 37.6248481 1.187926.406263 2.116243.270036 2.784952-.408681 1.003063-1.018074 44.02077-42.4003918 45.106533-43.5448307 1.085763-1.1444389 1.811281-4.9352142 0-7.3873784-1.20752-1.6347762-15.993722-17.4371985-44.358606-47.4072668L88.3065256 51.5177093z" fill="url(#m)" fill-rule="nonzero" transform="translate(1030 77)"/><path d="M136.250366 104.597298c1.187926.406263 2.116243.270036 2.784952-.408681 1.003063-1.018074 44.02077-42.4003918 45.106533-43.5448307 1.085763-1.1444389 1.811281-4.9352142 0-7.3873784-1.20752-1.6347762-15.993722-17.4371985-44.358606-47.4072668l-3.532879 98.7481569z" fill="url(#n)" fill-rule="nonzero" opacity=".44633556" transform="translate(1030 77)"/><g><path d="M17.7690163 57.9372597c.7713948 2.3496746 1.0437276 4.0327449.8169982 5.0492109-1.1902299 5.3360017-5.4239381 8.1823857-6.0980964 8.1823857-1.3001867 0 46.5980204-4.8814971 59.6246933-15.8315451 8.6844486-7.3000319 10.8379445-10.2321526 6.4604877-8.796362L17.7690163 57.9372597z" fill="url(#i)" transform="matrix(-1 0 0 1 1030 516)"/><path d="M78.1389845 49.4350853c-1.5052193 9.875245.0734118 19.545664 4.7358935 29.0112569 4.6624816 9.465593 14.0140106 21.9851698 28.054587 37.5587308l14.973987-17.5182762-47.7644675-49.0517115z" fill="url(#j)" transform="matrix(-1 0 0 1 1030 516)"/><path d="M1030 562.5409492c-3.20182793 2.7031007-5.36718072 4.9904691-6.49605838 6.8621051-1.12887765 1.871636-1.44686883 5.3087808-.95397352 10.3114345-32.6558126-3.6893468-51.2049981-5.9289466-55.6475567-6.7187993-4.4425585-.7898528-8.7604655-2.6158462-12.953721-5.4779802-11.6949467 14.1420846-20.4276204 24.3136836-26.1980214 30.5147968-5.7704 6.2011133-13.842415 14.6177231-24.216043 25.2498299l-5.875916-10.2014233 53.321673-62.0255357L1030 562.5409492z" fill="#FFF"/><path d="M75.4359253 40.4786219L118.836316.6406966c6.358241-.85426213 11.253905-.85426213 14.686993 0 3.433088.85426212 5.685907 2.92740779 6.758458 6.21943701L88.5240182 52.102984c-1.8178273-3.3801272-3.4521156-5.7102801-4.9028649-6.9904585-1.4507493-1.2801784-4.1791587-2.8248129-8.185228-4.6339036z" fill="url(#o)" fill-rule="nonzero" transform="matrix(-1 0 0 1 1030 516)"/><path d="M120.02769.6406966L61.4950969 2.17362474c-3.1097999.95581965-9.5485593 4.95732377-19.316278 12.00451236C32.4111003 21.2253257 18.3514939 32.0129297 0 46.5409492c15.9688202-.6688665 28.3080905-1.3375707 37.0178111-2.0061127 8.7097206-.6685419 21.7208868-1.94569 39.0334985-3.8314442L120.02769.6406966z" fill="url(#p)" fill-rule="nonzero" transform="matrix(-1 0 0 1 1030 516)"/><path d="M88.3065256 51.5177093c-.0547811 1.4502452 3.9160012 6.6018254 11.9123474 15.4547406 7.996345 8.8529152 20.006843 21.3945313 36.031493 37.6248481 1.187926.406263 2.116243.270036 2.784952-.408681 1.003063-1.018074 44.02077-42.4003918 45.106533-43.5448307 1.085763-1.1444389 1.811281-4.9352142 0-7.3873784-1.20752-1.6347762-15.993722-17.4371985-44.358606-47.4072668L88.3065256 51.5177093z" fill="url(#q)" fill-rule="nonzero" transform="matrix(-1 0 0 1 1030 516)"/></g><g><path d="M65.2711129 8.19964312L47.6537744 25.2592111 1.01026391 109.382764c5.03209852-1.581208 8.63562258-3.212597 10.81057219-4.894167 2.1749496-1.68157 5.0086775-5.027165 8.5011837-10.0367849L65.2711129 8.19964312z" fill="url(#r)" transform="matrix(-1 0 0 1 309 206)"/><path d="M309 315.382764c-19.8806939 15.919982-34.7120792 26.275198-44.494156 31.065647-9.7820768 4.790449-23.7975925 7.559934-42.0465471 8.308454-4.6841487 11.146538-9.8372477 19.274599-15.4592969 24.384183-5.622049 5.109583-17.593586 11.729234-35.914611 19.858952-11.47714-5.466871-19.699402-10.435228-24.666786-14.905071-4.967384-4.469844-8.467387-10.444869-10.500009-17.925075l152.7593862-65.7180419L309 315.382764z" fill="#FFF"/><path d="M115.387721 50.8010144c-9.543449-7.1224389-17.0670145-13.7523962-22.5706978-19.8898717C87.3133398 24.7736672 79.6110391 14.4699529 69.7101211 0L15.6240009 88.4717729c12.6986949 16.2499431 22.3132006 27.0894261 28.8435169 32.5184501 6.5303164 5.429024 16.2215545 10.581068 29.0737143 15.456132l41.8464889-85.6453406z" fill="url(#s)" fill-rule="nonzero" transform="matrix(-1 0 0 1 309 206)"/><path d="M69.7101211 0L15.6240009 88.4717729c12.6986949 16.2499431 22.3132006 27.0894261 28.8435169 32.5184501 6.5303164 5.429024 16.2215545 10.581068 29.0737143 15.456132L69.7101211 0z" fill="url(#t)" fill-rule="nonzero" opacity=".35586402" transform="matrix(-1 0 0 1 309 206)"/><path d="M103.905877 156.008956l36.611354-93.0410979c13.946212 6.92641 24.454565 11.2363867 31.52506 12.9299303 7.070494 1.6935435 17.518396 2.7447428 31.343705 3.1535979l-25.25581 86.9501927c-18.105171 2.136065-31.369999 2.66218-39.794483 1.578343-8.424483-1.083837-19.901092-4.940825-34.429826-11.570966z" fill="url(#u)" fill-rule="nonzero" transform="matrix(-1 0 0 1 309 206)"/><path d="M73.3663899 136.476308c10.4047438.912518 17.3781101 2.514303 20.9200987 4.805356 3.5419886 2.291054 6.8914634 7.366359 10.0484254 15.225917l36.462511-93.4218633c-1.068188-6.8693455-4.307498-11.4252289-9.717931-13.6676501-5.410433-2.2424213-10.797523-1.9103869-16.161269.9961029L73.3663899 136.476308z" fill="url(#v)" fill-rule="nonzero" transform="matrix(-1 0 0 1 309 206)"/></g><g><path d="M1.74598515 222.47625c3.01495675-3.398124 21.45985105-7.346131 55.33468305-11.844023l15.2512497 53.617675c-31.3652941 7.412761-49.3228387 10.540423-53.872634 9.382985-6.8246929-1.736156-8.4045353-9.382985-12.19086363-21.908364-3.78632834-12.525379-9.04487023-24.151087-4.52243512-29.248273z" fill="url(#w)" fill-rule="nonzero" transform="translate(241 301.367773)"/><path d="M909.037488 2.74101893C989.956827.91367298 1031.42349 0 1033.43747 0c3.02097 0 2.38858 2.47904914.29477 3.70196737-1.39588.81527882-36.22327 17.37938033-104.482168 49.69230463L909.037488 2.74101893z" fill="url(#x)" transform="translate(241 301.367773)"/><path d="M1274.43747 301.367773c3.02097 0 2.38858 2.47904914.29477 3.70196737-1.39588.81527882-36.22327 17.37938033-104.482168 49.69230463 67.444283-35.5961813 102.173418-53.394272 104.187398-53.394272z" fill="#000" style="mix-blend-mode:overlay" opacity=".32493955"/><path d="M152.999712 185.925181L907.694121 2.74101893h10.864035c-3.011843 3.27026296-4.207322 5.58875262-3.586436 6.95546899.931328 2.05007458 12.621231 9.03326558 13.677946 12.17284378 1.056716 3.1395782-2.588401 11.8024354 0 14.9163176 1.725601 2.0759214 5.535799 5.7535305 11.430597 11.0328272l-14.053991 10.2538214L165.995341 243.828423l-12.995629-57.903242z" fill="url(#y)" fill-rule="nonzero" transform="translate(241 301.367773)"/><path d="M152.999712 185.925181L907.694121 2.74101893h10.864035c-3.011843 3.27026296-4.207322 5.58875262-3.586436 6.95546899.931328 2.05007458 12.621231 9.03326558 13.677946 12.17284378 1.056716 3.1395782-2.588401 11.8024354 0 14.9163176 1.725601 2.0759214-254.102467 63.9168567-767.484202 185.5228047l-8.165752-36.383273z" fill="url(#z)" fill-rule="nonzero" transform="translate(241 301.367773)"/><path d="M283.4861835 512.106219l113.5263735-25.460831c.532784 10.960305 1.644182 19.977131 3.334196 27.050478 1.690014 7.073347 5.241738 17.573457 10.655174 31.50033L297.4209854 571.48587c-5.1461739-10.805791-8.5078396-19.569015-10.0849969-26.289674-1.5771573-6.720659-2.8604257-17.750651-3.849805-33.089977z" fill="#FEDCD0"/><path d="M997.498404.7586872C1020.34581.09819504 1032.3779 0 1033.43747 0c3.02097 0 2.38858 2.47904914.29477 3.70196737-.4848.28315127-5.00216 2.46594917-13.55207 6.54839363-1.0358.4945786-1.87097.9154823-2.77912 1.2085841-2.87185.9268852-6.88726-.9848212-10.35894-4.87563377-2.32399-2.60457283-13.53166-5.70933698-9.543706-5.82462413z" fill="url(#A)" fill-rule="nonzero" transform="translate(241 301.367773)"/><path d="M141.299213 218.973961c2.209139 0 4-1.567003 4-3.5 0-1.932996-1.790861-3.5-4-3.5s-4.948007 2.641968-4.948007 4.574964c0 1.932997 2.738868 2.425036 4.948007 2.425036zM69.2472198 231.973961c2.209139 0 4-1.567003 4-3.5 0-1.932996-1.790861-3.5-4-3.5-2.2091389 0-4.9480068 2.641968-4.9480068 4.574964 0 1.932997 2.7388679 2.425036 4.9480068 2.425036z" fill="url(#B)" fill-rule="nonzero" transform="translate(241 301.367773)"/><path d="M354.787872 496.110825c.222473.998306 1.777213 22.282899 4.261258 32.954804 2.484045 10.671905 8.936645 25.111093 9.147151 26.034701M364.130578 494.031529c.334202 1.454525 1.826974 22.191905 4.311019 32.86381 2.484046 10.671905 8.687954 22.025529 9.48506 25.99234M370.297603 492.640337c.170146.739624 3.39695 21.469545 5.880995 32.14145 2.484046 10.671905 7.899757 25.063456 8.257461 26.567591M379.433002 490.600478c.229028 1.044286 3.261551 21.509404 5.745596 32.181309 2.484046 10.671905 7.572528 23.592729 8.242699 26.485907M318.299213 504.341734c2.26356 14.512098 4.2233552 25.325449 5.8793855 32.440053 1.6560303 7.114603 4.3975638 15.918167 8.2246007 26.410693M309.299213 506.341734c2.26356 14.512098 4.2233552 25.325449 5.8793855 32.440053 1.6560303 7.114603 4.3975638 15.918167 8.2246007 26.410693M301.6728177 508.308264c.3720961 14.913013 1.3861593 25.926821 3.0421896 33.041425 1.6560303 7.114603 4.8854276 15.728867 9.6881919 25.842791" stroke="#FF7D3D" stroke-width="3" opacity=".22016834"/><path d="M559.647514 21.1628133c1.565722 0 .291409-1.6127171-.378342-2.4911008-.446501-.5855892-1.801038-1.0689384-4.06361-1.4500475l3.537745-3.9411483-12.644812 4.481681c7.988864 2.2670771 12.505204 3.4006156 13.549019 3.4006156z" fill="url(#C)" transform="translate(241 140)"/><path d="M538.893216 36.3991374c7.976556 1.7545643 12.487938 2.0737133 13.534147.957447 1.046208-1.1162663.349406-2.2772671-2.090407-3.4830024 9.898909-.1881915 14.848363-.9815699 14.848363-2.3801352 0-1.3985653-.757926-2.5949916-2.273777-3.589279h-18.747441l-5.270885 8.4949696z" fill="url(#D)" transform="translate(241 140)"/><path d="M382.828344 117.680295l63.025539-36.5329524c12.685672-3.6259224 21.078465-6.3768757 25.178379-8.2528599 3.572798-1.6347936 18.528191-9.9247639 49.997737-27.148397 3.095257-1.6940685 8.903152-4.3402024 17.423685-7.9384016l14.349328-7.2993308c6.249733-.0418689 9.619243-.9099308 10.10853-2.6041855.73393-2.5413822.21377-4.2425851-1.655673-6.690053-1.869442-2.4474679-17.044904-1.2600154-8.452857-5.2445859 8.592047-3.9845706 25.288368-10.75115751 28.524233-11.91597202C584.563111 2.88874237 585.65553 0 583.172022 0c-2.483509 0-7.960111 1.79425309-11.742695 2.88874237-15.243852 4.41080273-26.333764 6.88835316-29.055022 7.92507123-5.094761 1.9409513-16.27591 9.8191927-23.993454 13.8025458-7.717543 3.9833531-40.080407 13.8606729-51.177322 15.8636145-16.760843 3.0252545-16.760843 3.0252545-25.538944 7.2722571C435.812517 50.5835661 410.257656 65.3839841 365 92.1534849l17.828344 25.5268101z" fill="url(#E)" transform="translate(241 140)"/><path d="M623.828344 257.680295l63.025539-36.5329524c12.685672-3.6259224 21.078465-6.3768757 25.178379-8.2528599 3.572798-1.6347936-51.781601 3.1904314-82.587212 21.3158914-4.722888 2.7788608-6.595123 10.6021679-5.616706 23.4699209z" fill="#000" style="mix-blend-mode:overlay" opacity=".17085194"/><path d="M281.257519 94.906224l-3.766362 18.775602c-2.635613 6.095299-3.750652 11.557314-3.345114 16.386045.405537 4.828732 2.074349 9.442195 5.006436 13.840389l-1.661322 35.45575 1.661322 42.508491-1.661322 103.06839 12.753063-17.748558 34.881949-166.844057c-11.571335-6.336439-17.857167-12.134939-18.857497-17.395499-1.500495-7.890841-6.270855-16.245145 5.646559-23.1316386 11.917413-6.8864935 10.263799-5.7281735 22.019055-10.4725377 7.836837-3.1629095 16.935271-6.3064087 27.295302-9.4304978-15.422542-4.7080972-28.478876-6.1517168-39.169002-4.3308588-10.690126 1.8208579-24.291148 8.2605179-40.803067 19.3189799z" fill="url(#F)" fill-rule="nonzero" transform="translate(241 140)"/><path d="M394.104678 88.2015122c.431246-4.633744.329687-7.4203953-.304678-8.3599539-2.656719-3.9348715-7.274656-3.1599892-8.017227-5.2162536-1.318157-3.6501268-3.137503-10.7008035-2.540647-13.8403077 1.281846-6.7426036 5.342335-9.7183306 12.181465-8.927181L352.650498 24v40.4408582c0 5.9730444-2.550166 10.0927583-7.650498 12.3591418 10.877098 5.6651654 19.28103 9.4656694 25.211796 11.4015122 5.930765 1.9358428 13.895059 3.4780404 23.892882 4.6265927v-4.6265927z" fill="url(#G)" transform="translate(241 140)"/><path d="M385.732987 74.8255164c4.335052 3.5326507 5.918199 5.5428372 4.749441 6.0305593-1.168758.4877221-8.172651-.3261813-21.011677-2.4417102-16.126009-5.3654937-27.489209-6.8465315-34.089601-4.4431135-9.900589 3.605127-19.046093 10.3438527-25.725491 29.526712-2.008577 5.76852-6.470091 30.642409-6.470091 60.610828 0 7.013995 1.335487 17.975435 4.006461 32.884318 27.534863 5.607313 46.31594 9.233918 56.343233 10.879813 10.027292 1.645896 22.786111 3.252155 38.276456 4.818777C411.866299 192.696771 416.39858 174.466205 415.40856 158c-.682063-11.344195 3.387541-26.458717 0-39.779493-4.476657-17.603487-13.181208-31.0653427-14.992003-34.0004449-2.120698-3.4374203-7.015221-6.5689355-14.68357-9.3945457z" fill="url(#H)" transform="translate(241 140)"/><path d="M307.192029 196.99311c66.366708 7.678558 99.550062 12.214629 99.550062 13.608213 0 1.393585-2.101826 12.462014-6.305477 33.20529-12.675269-9.867742-27.881434-14.801613-45.618496-14.801613h-51.923973l4.297884-32.01189z" fill="url(#I)" fill-rule="nonzero" transform="translate(241 140)"/><path d="M406.742091 250.912565l-10.574167-12.451869c-.842012-6.978342-8.415615-10.467513-22.720811-10.467513-14.305195 0-37.822851.337273-70.552968 1.011817-8.171251 22.394876-12.77527 38.445035-13.812057 48.150476-1.55518 14.558162 4.132482 33.319768 17.917912 36.391285 13.78543 3.071518 33.414135 0 42.946879 0 6.355163 0 25.2869-20.878065 56.795212-62.634196z" fill="url(#J)" fill-rule="nonzero" transform="translate(241 140)"/><path d="M351.226906 147.445549c17.238405 25.658812 27.427378 40.737496 30.566919 45.23605 4.709312 6.747832 9.68826 8.785936 14.744099 16.378449 5.055839 7.592514 3.299704 7.592514 18.194033 22.781754 9.929552 10.12616 23.797036 22.590487 41.602452 37.392981l19.466499 29.649765c2.619401 4.112562 4.374674 6.445868 5.265818 6.999919.891144.55405 2.173591-.119999 3.847341-2.022148 2.432404 1.096733 4.202097 1.6451 5.30908 1.6451 1.106982 0 2.553163-.548367 4.338544-1.6451 2.702343.78197 4.665701.969132 5.890073.561486 1.224372-.407647 2.467922-1.662525 3.730649-3.764637 2.409839.474899 4.136223-.184088 5.17915-1.976962 1.564392-2.689312-.530853-6.077545-1.564391-9.673581-2.067757-7.194436-2.158884-7.213865-4.435532-11.13201-3.414599-5.876574-6.285653-10.029206-8.613162-12.457895 4.144977-.129773 7.016031-.748963 8.613162-1.857569 2.395696-1.662909 4.899688-4.939449 2.625484-5.943442-2.274203-1.003992-5.086689 1.003993-12.197765 0-4.740717-.669328-9.965286-1.990294-15.673707-3.962898-18.318918-19.067618-30.829703-32.047875-37.532354-38.940772-6.702651-6.892897-16.000997-18.029159-27.895037-33.408784l-21.492876-45.026367c-8.302478-2.233363-14.58719-2.717413-18.854135-1.45215-4.266945 1.265262-11.305059 5.471533-21.114344 12.618811z" fill="url(#K)" transform="translate(241 140)"/><path d="M655.731957 371.841802c9.929552 10.12616 23.797036 22.590487 41.602452 37.392981l19.466499 29.649765c2.619401 4.112562 4.374674 6.445868 5.265818 6.999919.891144.55405 2.173591-.119999 3.847341-2.022148 2.432404 1.096733 4.202097 1.6451 5.30908 1.6451.712974 0-12.25944-26.826083-31.056972-45.581796-24.980778-24.925202-52.93322-36.751105-44.434218-28.083821z" fill="#000" style="mix-blend-mode:overlay" opacity=".20365978"/><path d="M592.226906 287.445549c8.940302 13.296789 15.005599 22.308943 18.195891 27.036464 6.445546 9.551303 14.58547-43.562509 7.971467-40.348422-4.359201 2.118362-13.081654 6.555682-26.167358 13.311958z" fill="#000" style="mix-blend-mode:overlay" opacity=".12413969"/><path d="M427.692711 261.300379c-15.31741-6.478538-24.402776-12.309793-27.256097-17.493766-1.831025-3.326645-19.746036 3.549351-41.313437 8.267374-28.845933 6.310254-65.979763-24.521619-68.010426 21.818522-2.030663 46.340141 77.47681 56.283535 74.430708 46.340141-3.046101-9.943394 5.824065-15.107583 19.730093-33.197779 9.270685-12.06013 23.410405-20.638294 42.419159-25.734492z" fill="url(#L)" fill-rule="nonzero" transform="translate(241 140)"/><path d="M365.352544 312.314169l41.389547 3.009672c-6.901223 8.739694-10.737588 14.233411-11.509098 16.481151-12.729475 37.086452-22.689625 59.786831-29.880449 68.101138-1.543083 5.440382.507811 10.81815 6.152684 16.133305 5.644873 5.315155 12.608246 8.854581 20.890119 10.618279 3.046794-14.562175 10.261399-30.206007 21.643816-46.931497 17.073624-25.088236 49.883982-57.650373 56.196261-67.412048 6.312279-9.761675 9.580005-23.399877 0-33.35273-6.38667-6.635235-26.119355-13.749812-59.198055-21.34373-8.775395 2.000456-16.854057 7.425389-24.235986 16.2748-7.38193 8.849411-14.531543 21.656631-21.448839 38.42166z" fill="url(#M)" transform="translate(241 140)"/><path d="M606.352544 452.314169l41.389547 3.009672c-6.901223 8.739694-10.737588 14.233411-11.509098 16.481151-12.729475 37.086452-22.689625 59.786831-29.880449 68.101138-1.543083 5.440382.507811 10.81815 6.152684 16.133305 8.467309 7.972733 49.050971-86.928237 53.082036-101.127555 4.031065-14.199318-46.769538-28.65051-51.129808-20.224824-1.824116 3.52488-4.525754 9.400584-8.104912 17.627113z" fill="#000" style="mix-blend-mode:overlay" opacity=".12411644"/><path d="M364.855649 400.445646l-4.704668 1.131277-7.885764 37.175113v39.266261l21.180205 14.758577c3.612231-11.849401 6.413515-21.165757 8.403851-27.949068 1.990336-6.783311 4.021585-13.936823 6.093746-21.460536l4.452328-16.709556c-9.910918-3.315518-16.599273-6.622633-20.065065-9.921347-3.465792-3.298713-5.957336-8.728954-7.474633-16.290721z" fill="url(#N)" transform="translate(241 140)"/><path d="M364.855649 400.445646c-4.102238-2.007064-9.078519-2.528959-14.928844-1.565683-5.850324.963276-10.491315 3.068687-13.922973 6.316233-1.327931 33.93036.502127 61.138298 5.490175 81.623817 7.482072 30.728277 15.480679 34.714091 19.988822 36.679023 4.508143 1.964932 10.005157.098216 11.969329-5.880904 1.309447-3.986079 1.964171-14.252119 1.964171-30.798119-5.64871.796502-9.928816.147039-12.840317-1.948389-4.367251-3.143143-9.332398-8.532993-9.332398-28.393975 0-11.814057 4.113691-35.062994 6.176453-43.919355 1.375175-5.904241 3.187035-9.94179 5.435582-12.112648z" fill="url(#O)" fill-rule="nonzero" transform="translate(241 140)"/><path d="M336.216672 405.034698c-3.535886-.023132-5.506683 1.711285-5.912391 5.203252-.405708 3.491967-.405708 11.684131 0 24.576492h5.409487c.231964-6.575604.371563-11.544678.418795-14.907221.047233-3.362543.075269-8.320051.084109-14.872523z" fill="url(#P)" fill-rule="nonzero" transform="translate(241 140)"/><path d="M353.413479 451.071628c7.16008.606484 12.102546 1.064673 14.827398 1.374568 10.700678 1.216979 16.085225.974814 16.919903.974814 1.730243 0 .47018 5.194276-1.298569 6.141729-1.179166.631636-11.711497-.048977-31.596994-2.041838l1.148262-6.449273z" fill="url(#Q)" fill-rule="nonzero" transform="translate(241 140)"/><path d="M282.359987 97.9468353c10.916422-11.3154969 24.805191-18.365421 41.666305-21.1497723 25.291671-4.176527 39.918309-1.043554 55.413024 16.4685633 10.32981 11.6747447 15.133708 23.9421597 14.411696 36.8022447l1.083018-14.648063c0-6.620199-1.90217-12.444523-5.70651-17.4729727-5.70651-7.5426747-29.550394-37.8234841-55.533872-34.1637024-25.983479 3.6597817-35.112822 12.0419455-46.083625 18.7826336-4.016758 2.4679789-14.782401 7.8498936-15.442843 10.6998598-.361411 1.5595755 3.036192 3.1199785 10.192807 4.681209z" fill="url(#R)" fill-rule="nonzero" transform="translate(241 140)"/><path d="M588.262489 288.321264c5.72433 1.253214 20.433209-8.744537 25.890304-10.46934 9.506732-3.004756 15.727812-1.573036 18.042592-1.573036 5.465278 0 3.221125-18.35247-2.181391-29.344009-5.402516-10.9915393-13.976027-22.8892461-25.173831-27.4929717-11.197804-4.6037255-23.697212-1.7040602-30.611995 5.093168-6.914782 6.7972282-7.744219 37.7487437-2.486908 45.5327957 5.257312 7.784053 10.796899 17.00018 16.521229 18.253393z" fill="#FFD9CB"/><path d="M286.203267 103.497964c-9.188724-12.2272157-15.740888-16.9211677-29.95049-16.1122461-14.209602.8089217-21.406034-2.2454996-35.122663 26.9926191-9.144419 19.49208-12.316867 53.960586-9.517342 103.405518h67.492786c9.056197-27.022473 13.860898-49.278178 14.414102-66.767113.829807-26.233402 1.872331-35.291563-7.316393-47.518778z" fill="url(#S)" fill-rule="nonzero" transform="translate(241 140)"/><path d="M286.203267 103.497964c-6.125816-8.1514773-8.491719 29.94382-7.097709 114.285891 9.056197-27.022473 13.860898-49.278178 14.414102-66.767113.829807-26.233402 1.872331-35.291563-7.316393-47.518778z" fill="url(#T)" fill-rule="nonzero" opacity=".43626767" transform="translate(241 140)"/><path d="M211.612772 217.783855c-4.916202 66.513147-4.345939 101.000939 1.710789 103.463378 6.056728 2.462438 27.445927 3.693658 64.167596 3.693658 4.055895-26.950935 6.185008-47.141316 6.387339-60.571142.20233-13.429827-1.388649-28.958458-4.772938-46.585894h-67.492786z" fill="url(#U)" fill-rule="nonzero" transform="translate(241 140)"/><path d="M213.323561 321.247233c6.056728 2.462438 27.445927 3.693658 64.167596 3.693658 4.055895-26.950935 6.185008-47.141316 6.387339-60.571142.20233-13.429827-1.388649-28.958458-4.772938-46.585894-49.911393 66.513147-71.838725 101.000939-65.781997 103.463378z" fill="url(#V)" fill-rule="nonzero" transform="translate(241 140)"/><path d="M352.489059 149.476411c-25.415299 22.193647-40.51431 36.464024-45.29703 42.81113-4.92705 6.538643-7.37614 15.909416-7.34727 28.11232l16.490298 12.431525c7.806676 2.751069 17.199006-1.392773 28.176989-12.431525 9.556923-9.609824 19.33669-22.136665 29.900722-38.208914.839155-1.2767-6.127277-10.515971-12.152475-18.963397-5.218724-7.316736-9.413998-14.063092-9.771234-13.751139z" fill="url(#W)" fill-rule="nonzero" transform="translate(241 140)"/><path fill="url(#X)" fill-rule="nonzero" d="M299.844506 220.399861l-10.762418 40.692681 20.959722-3.474833 6.712177-24.898618z" transform="translate(241 140)"/><path fill="url(#Y)" fill-rule="nonzero" d="M299.844506 220.399861l-12.649692 11.316116 8.406767 6.055764z" transform="translate(241 140)"/><path fill="url(#Z)" fill-rule="nonzero" d="M279.744332 221l16.449101 15.89924-4.472349 18.069993-7.754248 7.628081z" transform="translate(241 140)"/><path d="M211.405681 184.443238c-5.724549 2.265025-9.404199 16.781674-11.038952 43.549945-2.452128 40.152408.135587 53.774403 1.770578 66.398552 1.089993 8.416099 4.179452 7.713662 9.268374-2.107313 4.390118-35.123296 6.585177-59.084816 6.585177-71.884561 0-12.799744-2.195059-24.785285-6.585177-35.956623z" fill="url(#aa)" fill-rule="nonzero" transform="translate(241 140)"/><path d="M353.03355 158c-23.792437 22.270471-37.128739 35.108948-40.008908 38.515431-4.320253 5.109724-7.509516 10.505241-5.309731 17.900651 2.199785 7.395411 7.061998 11.301946 13.996122 11.301946 6.934123 0 9.915128-1.975706 22.849422-16.394101 8.622862-9.612264 16.432469-19.646807 23.428818-30.103631L353.03355 158z" fill="url(#ab)" fill-rule="nonzero" transform="translate(241 140)"/><g><path d="M112.401042 82.218631c9.1485-3.4142957 14.081863-6.659719 14.800087-9.7362702 1.077337-4.6148267-2.525417-4.4589455-3.556199-6.4582235-1.030783-1.9992781-1.602248-4.8594249-2.643555-6.0819278-.694205-.815002-1.732091-1.0406965-3.113657-.6770837 1.432406-3.1856461 2.14861-5.2410064 2.14861-6.1660811 0-.9250746-1.662242-2.9487175-4.986727-6.0709286.998056-1.4441833 1.636068-2.4990275 1.914038-3.1645325.416954-.9982576 1.548097-4.3922746-3.037808-5.4617312-3.05727-.7129711-6.938212-2.2553654-11.642826-4.6271829-.651692-2.8068171-1.244119-4.697439-1.777282-5.6718655-.7997445-1.4616398-4.0335776-4.2752772-5.1911371-5.7929711C94.5428796 21.298037 91.3814779 18.5280927 85.8303807 14l-20.4939681 1.9434261.8466621 27.4767842 15.7002942 17.8622799-9.0612146-4.6980027C62.2740514 56.0763928 57 57.6423937 57 61.2824902c0 5.4601446 4.4583804 9.998784 11.6376079 14.3215329 4.7861517 2.8818326 9.2014053 3.6243945 13.245761 2.2276855 3.7952356 4.5858646 8.2723079 7.1074809 13.431217 7.5648488 5.1589091.4573679 10.8543941-.6019409 17.0864561-3.1779264z" fill="url(#ac)" transform="rotate(31 158.37640702 1058.50618807)"/><path d="M615.58508391 116.93633969l-13.425859 23.9882642 4.25802452 23.3972114-5.34732665-8.69384473c-8.77980068-5.86819672-14.10709517-7.24220923-15.98188342-4.12203763-2.81218241 4.6802575-1.32817662 10.86686644 2.59924217 18.26976095 2.61827922 4.93526303 6.02044263 7.84578644 10.20649026 8.73157037.89131407 3.75494477 1.77391276 6.38684876 2.6477961 7.8957123.75543263 1.30434405 10.16005905-9.26440864 12.0638728-20.0466569 1.48497098-8.41013195 10.722833-12.20868694 11.63668482-25.43171575.39252847-5.67971129-2.49315205-13.67579938-8.6570416-23.98826421z" fill="#000" style="mix-blend-mode:overlay" opacity=".12472098"/><path d="M78.9917861 18.9718008c0 12.8422557-4.158815 34.754579-12.6995745 39.9773618-8.5407595 5.2227828-10.7436933 25.5263106-15.9139236 35.3379963-5.1702304 9.8116861-21.1345718 4.7062717-29.0546169 7.9606271-5.28003 2.169571-6.6369986-.483972-4.0709056-7.9606271-4.3870417 6.3352541-9.30925413 8.9887961-14.76663744 7.9606271-8.18607496-1.542253 16.03301074-41.387181 21.24683034-51.6090146C28.946778 40.4169378 47.8614165-10.1346674 84.2797835 3.23506186 120.69815 16.6047912 78.9917861 6.12954505 78.9917861 18.9718008z" fill="url(#ad)" fill-rule="nonzero" transform="translate(529 110)"/><path d="M104.750867 14.9140357c-15.8199537-4.3866248-23.7299305-2.2791412-23.7299305 6.3224508 0 12.9023881.1325047 38.1898357-8.4053459 43.4370736-8.5378506 5.2472379-1.7918178 23.9918834-6.9602872 33.8495111-5.1684695 9.8576278-33.8716586 7.0347428-41.7890062 10.3043358-5.2782317 2.17973-7.3958586.845766-6.3528807-4.001891-2.0161168 1.032984-5.7519375 1.032984-11.20746204 0-8.18328685-1.549474 8.12338054-34.8946798 19.96880944-47.8487765C38.1201928 44.0226428 43.1751917 3.89778749 77.2252375 6.63331434 99.925268 8.45699891 109.100478 11.2172394 104.750867 14.9140357z" fill="url(#ae)" fill-rule="nonzero" transform="translate(529 110)"/><path d="M104.7 15.145228c-5.9345187 1.7420894-9.7863629 3.6051614-11.5555328 5.5892161-1.8963762 2.1267116-4.8207207 4.0284212-4.8207207 7.6173568 0 12.916841-14.4310902 28.2883443-22.9280869 33.54146-8.4969966 5.2531157-7.1437145 29.3950071-12.2874527 39.2636771-5.1437381 9.86867-21.0262781 4.733605-28.9057409 8.006861-5.2529752 2.182171-6.6029907-.486783-4.0500463-8.006861 8.8952783-15.5425524 17.5303595-27.3902965 25.9052437-35.5432323 13.0247214-12.6795447-2.0818934-39.02032 29.9295444-53.7979235C80.1571799 9.89077661 89.7281106 11.0005919 104.7 15.145228z" fill="url(#af)" fill-rule="nonzero" transform="translate(529 110)"/><path d="M107.464177 18.7375879c-1.807419 3.0567252-4.508621 5.8969324-8.103607 8.5206214-8.3933876 6.1256539-1.5954361 16.5222202-16.6480378 16.5222202-15.0526018 0-12.8804417 5.6415285-18.5340431 13.526905-5.6536014 7.8853766-52.8143085 14.5012722-62.69935522 12.6916263-9.88504667-1.8096459 40.44503532-4.0643915 50.70725682-16.5868693C62.4486123 40.8896137 67.1184236 41.3473324 73.9091672 38.279004 80.6999107 35.2106756 97.1841111 10.9 102.893648 10.9c5.709536 0 5.576356 6.1365234 4.570529 7.8375879z" fill="url(#ag)" fill-rule="nonzero" transform="translate(529 110)"/></g><path d="M393.629521 42c-.542904-.8043433-.89511-1.4153477-1.056621-1.8330131-.16151-.4176654-.265566-.9865544-.312166-1.7066671L389 37.7928797C390.958558 37.2642932 392.501731 37 393.629521 37c1.127789 0 2.917949.2642932 5.370479.7928797L393.629521 42z" fill="url(#ah)" fill-rule="nonzero" transform="scale(-1 1) rotate(33 -306.17688824 -1642.42289092)"/><path d="M397.762118 31.7692096c.176382-.5277867-.129171-1.0453819-.916659-1.5527854-2.300782.0535008-4.269914.554213-5.907394 1.5021367-1.97364 1.1425233-4.162882 2.8234618-5.807024 4.7966519-1.663548 1.9964794-1.541695 4.3474454 1.592309.7717861 1.38199-1.5767454 4.423416-3.4111202 5.768611-3.8054115 2.57014-.7533365 4.326859-1.3241291 5.270157-1.7123778z" fill="url(#ai)" fill-rule="nonzero" transform="rotate(13 28.71135637 1147.2934345)"/></g></g></svg>
